<?xml version="1.0" encoding="iso-8859-1"?>
<!-- Generator: Adobe Illustrator 19.0.0, SVG Export Plug-In . SVG Version: 6.00 Build 0)  -->
<svg version="1.1" id="Capa_1" xmlns="http://www.w3.org/2000/svg" xmlns:xlink="http://www.w3.org/1999/xlink" x="0px" y="0px"
	 viewBox="0 0 496 496" style="enable-background:new 0 0 496 496;" xml:space="preserve">
<g>
	
		<linearGradient id="SVGID_1_" gradientUnits="userSpaceOnUse" x1="-51.312" y1="563.187" x2="15.283" y2="629.784" gradientTransform="matrix(8 0 0 -8 399 5013)">
		<stop  offset="0" style="stop-color:#AA6100"/>
		<stop  offset="0.093" style="stop-color:#AC6400"/>
		<stop  offset="0.165" style="stop-color:#B26E00"/>
		<stop  offset="0.231" style="stop-color:#BB7E00"/>
		<stop  offset="0.292" style="stop-color:#C99600"/>
		<stop  offset="0.35" style="stop-color:#DBB400"/>
		<stop  offset="0.405" style="stop-color:#F0D800"/>
		<stop  offset="0.439" style="stop-color:#FFF200"/>
		<stop  offset="0.474" style="stop-color:#FFD705"/>
		<stop  offset="0.519" style="stop-color:#FFBB0A"/>
		<stop  offset="0.565" style="stop-color:#FFA80E"/>
		<stop  offset="0.611" style="stop-color:#FF9C10"/>
		<stop  offset="0.658" style="stop-color:#FF9811"/>
		<stop  offset="0.732" style="stop-color:#FF9A12"/>
		<stop  offset="0.758" style="stop-color:#FFA118"/>
		<stop  offset="0.777" style="stop-color:#FFAC21"/>
		<stop  offset="0.793" style="stop-color:#FFBD2E"/>
		<stop  offset="0.806" style="stop-color:#FFD33F"/>
		<stop  offset="0.809" style="stop-color:#FFDA44"/>
		<stop  offset="0.879" style="stop-color:#DDA928"/>
		<stop  offset="0.96" style="stop-color:#B8750B"/>
		<stop  offset="1" style="stop-color:#AA6100"/>
	</linearGradient>
	<path style="fill:url(#SVGID_1_);" d="M424,40H72c-17.673,0-32,14.327-32,32v352c0,17.673,14.327,32,32,32h352
		c17.673,0,32-14.327,32-32V72C456,54.327,441.673,40,424,40z M200,335.76V160.24L335.76,248L200,335.76z"/>
	
		<linearGradient id="SVGID_2_" gradientUnits="userSpaceOnUse" x1="-51.312" y1="563.187" x2="15.283" y2="629.784" gradientTransform="matrix(8 0 0 -8 399 5013)">
		<stop  offset="0" style="stop-color:#AA6100"/>
		<stop  offset="0.093" style="stop-color:#AC6400"/>
		<stop  offset="0.165" style="stop-color:#B26E00"/>
		<stop  offset="0.231" style="stop-color:#BB7E00"/>
		<stop  offset="0.292" style="stop-color:#C99600"/>
		<stop  offset="0.35" style="stop-color:#DBB400"/>
		<stop  offset="0.405" style="stop-color:#F0D800"/>
		<stop  offset="0.439" style="stop-color:#FFF200"/>
		<stop  offset="0.474" style="stop-color:#FFD705"/>
		<stop  offset="0.519" style="stop-color:#FFBB0A"/>
		<stop  offset="0.565" style="stop-color:#FFA80E"/>
		<stop  offset="0.611" style="stop-color:#FF9C10"/>
		<stop  offset="0.658" style="stop-color:#FF9811"/>
		<stop  offset="0.732" style="stop-color:#FF9A12"/>
		<stop  offset="0.758" style="stop-color:#FFA118"/>
		<stop  offset="0.777" style="stop-color:#FFAC21"/>
		<stop  offset="0.793" style="stop-color:#FFBD2E"/>
		<stop  offset="0.806" style="stop-color:#FFD33F"/>
		<stop  offset="0.809" style="stop-color:#FFDA44"/>
		<stop  offset="0.879" style="stop-color:#DDA928"/>
		<stop  offset="0.96" style="stop-color:#B8750B"/>
		<stop  offset="1" style="stop-color:#AA6100"/>
	</linearGradient>
	<path style="fill:url(#SVGID_2_);" d="M456,496H40c-22.08-0.026-39.974-17.92-40-40V40C0.026,17.92,17.92,0.026,40,0h416
		c22.08,0.026,39.974,17.92,40,40v416C495.974,478.08,478.08,495.974,456,496z M40,16c-13.255,0-24,10.745-24,24v416
		c0,13.255,10.745,24,24,24l0,0h416c13.255,0,24-10.745,24-24l0,0V40c0-13.255-10.745-24-24-24H40z"/>
</g>
<g>
</g>
<g>
</g>
<g>
</g>
<g>
</g>
<g>
</g>
<g>
</g>
<g>
</g>
<g>
</g>
<g>
</g>
<g>
</g>
<g>
</g>
<g>
</g>
<g>
</g>
<g>
</g>
<g>
</g>
</svg>
